<?xml version="1.0" encoding="UTF-8"?>
<svg xmlns="http://www.w3.org/2000/svg" viewBox="0 0 24 24">
  <path transform="rotate(45 12 12)" d="M12 2c-.5 0-1 .2-1.4.6C8.5 4.7 6 9 6 13c0 1.2.2 2.3.6 3.3L4.3 18.6c-.4.4-.4 1 0 1.4s1 .4 1.4 0l2.3-2.3c.7.8 1.6 1.3 2.5 1.3h.5v2c0 .6.4 1 1 1s1-.4 1-1v-2h.5c.9 0 1.8-.5 2.5-1.3l2.3 2.3c.2.2.5.3.7.3s.5-.1.7-.3c.4-.4.4-1 0-1.4l-2.3-2.3c.4-1 .6-2.1.6-3.3 0-4-2.5-8.3-4.6-10.4-.4-.4-.9-.6-1.4-.6zm0 2.5c1.8 2 4 5.8 4 8.5 0 2.8-1.8 5-4 5s-4-2.2-4-5c0-2.7 2.2-6.5 4-8.5zm0 6.5c-1.1 0-2 .9-2 2s.9 2 2 2 2-.9 2-2-.9-2-2-2z"/>
</svg>
