<svg width="16" height="16" viewBox="0 0 16 16" fill="none" xmlns="http://www.w3.org/2000/svg">
  <path d="M8 10a2 2 0 1 0 0-4 2 2 0 0 0 0 4z" stroke="currentColor" stroke-width="1.5" fill="none"/>
  <path d="M6.7 2h2.6l.4 1.5c.3.1.6.3.9.5l1.4-.8 1.8 1.8-.8 1.4c.2.3.4.6.5.9L14 7.7v2.6l-1.5.4c-.1.3-.3.6-.5.9l.8 1.4-1.8 1.8-1.4-.8c-.3.2-.6.4-.9.5L9.3 14H6.7l-.4-1.5c-.3-.1-.6-.3-.9-.5l-1.4.8L2.2 11l.8-1.4c-.2-.3-.4-.6-.5-.9L1 8.3V5.7l1.5-.4c.1-.3.3-.6.5-.9L2.2 3L4 1.2l1.4.8c.3-.2.6-.4.9-.5L6.7 2z" stroke="currentColor" stroke-width="1.5" fill="none"/>
</svg>