<?xml version="1.0" encoding="UTF-8"?><svg id="Layer_1" xmlns="http://www.w3.org/2000/svg" viewBox="0 0 1011.0373 967.9782"><defs><style>.cls-1{fill:#f17138;}.cls-2{stroke:#52448f;stroke-miterlimit:10;stroke-width:6px;}.cls-2,.cls-3{fill:#52448f;}.cls-4{fill:#fff;}.cls-5{fill:#f1723a;}.cls-6{fill:#f6b93f;}</style></defs><path class="cls-2" d="M756.4643,72.9649c25.9171,68.37,75.2456,123.6613,136.0478,163.1281,4.414,2.8651,27.4212,14.5418,28.2427,15.9397,1.1454,1.9492.5006,4.2852-.1012,6.2951-2.798,9.3448-23.992,39.5928-30.7489,49.5211-93.7291,137.7219-228.6581,241.1592-382.7752,303.3196l-138.2666-149.7692c74.0033-146.8891,194.1992-285.8108,339.1097-366.3228,6.2377-3.4656,45.7619-24.0335,48.4917-22.1116Z"/><path class="cls-1" d="M364.0254,581.3006c-6.2087,1.6061-12.3628-2.3481-19.521-2.2138-53.0939.9965-57.1028,50.6856-65.7844,88.5864-1.9591,8.5527-5.7733,16.0837-7.2032,24.644,31.6845-11.791,68.1626-3.1583,95.5468-26.7655,16.183-13.9509,24.4147-41.1541,17.5221-61.6348,16.809,21.4577,12.5969,58.9853-2.3957,80.8732-21.3851,31.2205-56.0325,29.2258-84.6205,46.9651-107.8309,66.9106-42.6145,244.8988,84.96,215.5386-10.8295,11.105-37.1472,18.8667-52.6751,20.2856-53.3309,4.873-103.983-35.6157-125.0994-82.0586-19.7713-43.4847-16.4746-87.5453-.0473-131.4689-114.7214,53.3503-260.3808-70.2182-183-187.133.8552,14.928-3.9254,28.7768-2.821,43.9367,7.576,103.9954,154.6412,140.3912,214.4036,52.5084,17.8984-26.3203,18.3013-56.6828,45.4589-77.9025,23.4421-18.3166,60.3413-20.2054,85.2762-4.1608Z"/><path class="cls-2" d="M1007.5493,3.5674c-10.025,77.2626-37.6517,150.8379-67.943,221.9455l-4.5815-.3002c-66.9802-35.875-126.1561-94.4053-151.4214-166.9061.8296-2.7614,29.995-12.4031,35.2893-14.1703,61.0619-20.382,125.167-30.8736,188.6565-40.5689Z"/><path class="cls-2" d="M688.8772,544.2921v50.3726c0,78.7163-82.0848,128.2475-146.0434,154.1361-2.5041,1.0136-26.4848,11.7349-26.6927,8.2616,4.0207-18.0787,9.0535-36.9622,10.289-55.5057,1.5647-23.4849-.8625-47.4874-1.0562-70.9308,27.6419-13.6328,56.1351-25.5424,83.3624-40.0293,27.2958-14.5234,52.7736-32.4816,80.141-46.3045Z"/><path class="cls-2" d="M444.2027,285.2434l-94.5546,155.318c-2.8561,1.8017-42.7914-4.8539-50.408-5.2179-25.9206-1.2385-51.5597,2.2911-77.0699,6.1366-2.0712-2.0374,18.5904-42.0025,21.5337-47.3219,15.9367-28.8018,43.8457-70.8033,71.1638-89.2061,37.5387-25.2879,86.0399-23.3806,129.3351-19.7088Z"/><path class="cls-5" d="M368.1376,815.7082c81.1446,9.0781,57.9158,117.3437-17.4765,117.3545-73.9034.0106-105.3858-90.8079-71.9954-150.3064,34.4698-61.4221,110.5181-39.826,132.0609-114.662,4.8153-16.7274,4.7257-30.6513,3.6612-47.7189,27.4631,46.4569,16.7405,103.6437-27.9336,134.4719-24.3086,16.7746-54.7359,18.5086-70.0899,47.1035-15.6918,29.2239-7.6456,73.1938,24.2359,87.5347,45.7854,20.5951,78.1354-37.9241,40.9231-65.5956-4.681-3.4809-10.7275-3.2697-13.3856-8.1815Z"/><path class="cls-5" d="M154.2901,587.4684c-6.2027-6.8097-8.0953-15.9008-15.7151-22.3003-22.4399-18.8465-58.7595-6.3348-62.436,23.2716-6.6443,53.5048,65.3106,76.719,101.8596,44.305,17.5935-15.6031,23.0439-42.022,38.0378-60.6514,33.1262-41.158,89.3068-49.8367,133.5869-20.5952-21.3568-1.5211-37.6522-2.0877-58.0939,5.6231-57.8741,21.8308-48.557,69.741-84.4802,105.702-72.2855,72.3615-207.6768-1.3499-161.4129-92.5361,27.3043-53.8167,105.0179-45.7685,108.6539,17.1813Z"/><path class="cls-6" d="M364.0254,581.3006c7.7501,4.9869,17.5237,13.5934,20.5602,22.6163,6.8926,20.4807-1.3391,47.6839-17.5221,61.6348-27.3842,23.6072-63.8623,14.9745-95.5468,26.7655,1.4299-8.5603,5.2441-16.0913,7.2032-24.644,8.6817-37.9008,12.6905-87.5898,65.7844-88.5864,7.1582-.1344,13.3123,3.8199,19.521,2.2138Z"/><path class="cls-2" d="M456.4056,636.7017l-5.6942-.3022-113.4043-127.0488,34.8782-7.2417c23.1423,23.4101,46.6456,46.7578,68.9696,70.9387,3.6404,3.9433,24.8028,26.4219,25.3313,28.2438,2.6567,9.159-9.067,25.4734-10.0806,35.4102Z"/><polygon class="cls-3" points="613.0506 319.5021 611.9054 303.5476 620.147 291.6305 620.476 278.6736 627.5558 264.5817 634.0952 258.4486 642.5129 247.3725 658.8533 237.4167 668.5067 228.3631 682.4989 226.7064 690.926 220.5751 706.1315 216.9473 721.1961 220.1235 734.812 224.795 746.8903 229.2279 759.5358 239.6111 762.2912 249.4617 754.8837 265.1496 751.6534 276.1402 741.6867 291.7043 737.681 302.5498 740.8127 315.4438 737.2446 330.4281 725.4446 341.495 724.7826 348.3186 717.5355 360.432 703.667 366.953 692.6058 367.8633 677.9917 381.5695 672.9963 392.602 660.549 397.9286 646.4328 396.1043 635.2329 388.8866 627.7751 379.0452 623.9409 364.4763 618.016 355.4127 615.9225 349.4013 616.5696 343.4778 613.2082 334.225 613.0506 319.5021"/><path class="cls-4" d="M649.0981,400.7008l-16.4482,15.5277-12.6197,22.1221-91.3872,85.71c-3.2039-1.2009-6.9366-.5884-9.592,1.902-3.7203,3.4892-3.9079,9.3404-.4187,13.0607,3.4892,3.7203,9.3404,3.9079,13.0607.4187,2.6554-2.4904,3.5057-6.1763,2.5125-9.4504l91.7376-86.0386,12.8286-22.5208,20.529-19.2537-10.2027-1.4776ZM530.8897,533.1013c-.0823,1.344-.6736,2.6586-1.725,3.6447-2.2241,2.086-5.7505,1.9728-7.8364-.2512s-1.9729-5.7504.2512-7.8364c1.0514-.9861,2.4011-1.4919,3.7477-1.488,1.4914-.0306,2.9889.5665,4.0887,1.7392s1.5998,2.7053,1.4738,4.1917Z"/><path class="cls-4" d="M582.8518,314.6413l-95.8398,89.1259c-3.2392-1.3197-7.089-.7241-9.7984,1.817-3.7203,3.4892-3.9079,9.3404-.4187,13.0607s9.3404,3.9079,13.0607.4187c2.6015-2.4399,3.4745-6.0204,2.5707-9.2263l.0135-.0127,95.6876-87.2349,20.4082-.3917-.0151-3.609c-.9323-1.9125-.716-2.9515-.852-4.8255l-24.8167.8779ZM488.9355,411.0589c.4243,1.857-.1121,3.9055-1.6083,5.3088-2.2241,2.086-5.7505,1.9728-7.8364-.2512s-1.9729-5.7504.2512-7.8364c1.4962-1.4032,3.5749-1.8073,5.4009-1.265.8932.277,1.7528.7883,2.4355,1.5162s1.1378,1.6185,1.3571,2.5276Z"/><path class="cls-4" d="M586.2317,365.4118l-30.3326,8.1795-27.2552,25.562c-3.4291-1.9272-7.8485-1.5067-10.8679,1.3251-3.7203,3.4892-3.9079,9.3404-.4187,13.0607s9.3404,3.9079,13.0607.4187c2.4936-2.3387,3.3997-5.7221,2.6761-8.8438l26.5139-24.8668,30.3326-8.1795,23.2924-21.8454c-.0485-1.7534.1888-3.4455.6705-5.0121-.9751-.9856-1.855-2.0859-2.6002-3.3125l-25.0716,23.5141ZM529.495,408.4895c-.2551,1.0246-.7832,2.0014-1.6054,2.7725-2.2241,2.086-5.7505,1.9728-7.8364-.2512-2.086-2.2241-1.9729-5.7504.2512-7.8364,1.4962-1.4032,3.5749-1.8073,5.4009-1.265.8932.277,1.7528.7883,2.4355,1.5162,1.3147,1.4018,1.7499,3.3245,1.3542,5.0639Z"/><path class="cls-4" d="M617.6894,362.5112l-17.5502,16.4599-31.6806,9.4437-6.5779,6.1692c-3.2764-1.3863-7.2164-.8327-9.9797,1.7589-3.7203,3.4892-3.9079,9.3404-.4187,13.0607s9.3404,3.9079,13.0607.4187c2.7633-2.5916,3.568-6.488,2.3945-9.8465l5.3109-4.9809,31.6806-9.4437,15.7169-14.7405c-.5246-2.3963-.4719-4.4473-.0359-6.2244-.686-.6234-1.3172-1.3235-1.9207-2.075ZM563.7564,402.9592c.0298,1.5175-.5555,3.0546-1.7417,4.1671-2.2241,2.086-5.7505,1.9728-7.8364-.2512s-1.9729-5.7504.2512-7.8364c1.1862-1.1125,2.7576-1.5981,4.2701-1.4712,1.3171.1075,2.6055.698,3.5663,1.7224s1.4675,2.348,1.4905,3.6693Z"/><path class="cls-4" d="M614.071,395.0411l-24.867,6.119c-.2369-.3605-.5133-.7093-.8167-1.0328-3.4892-3.7203-9.3404-3.9079-13.0607-.4187-3.7203,3.4892-3.9079,9.3404-.4187,13.0607s9.3404,3.9079,13.0607.4187c1.4288-1.34,2.3326-3.0238,2.7164-4.8026l27.0408-6.6377,13.1289-12.3133c-.177-.1887-.3667-.391-.5428-.6057l-2.8454-3.4121c-.4652-.5771-.9043-1.1533-1.3047-1.7153l-12.0909,11.3398ZM586.2835,409.4731c-.2342.3717-.5198.7156-.8433,1.019-2.2241,2.086-5.7505,1.9728-7.8364-.2512-2.086-2.2241-1.9729-5.7504.2512-7.8364,2.0354-1.909,5.1624-1.9787,7.2902-.25.1913.1499.3692.3125.5462.5012,1.7698,1.8871,1.9533,4.73.592,6.8174Z"/><path class="cls-4" d="M637.6879,395.2883c-.9464-.6579-1.8658-1.341-2.7574-2.0756l-59.5113,55.8143c-3.4291-1.9272-7.8485-1.5067-10.8679,1.3251-3.7203,3.4892-3.9079,9.3404-.4187,13.0607,3.4892,3.7203,9.3404,3.9079,13.0607.4187,2.4936-2.3387,3.3997-5.7221,2.6761-8.8438l61.3715-57.5589-3.5529-2.1404ZM576.2703,458.3631c-.2551,1.0246-.7832,2.0014-1.6054,2.7725-2.2241,2.086-5.7505,1.9728-7.8364-.2512-2.086-2.2241-1.9729-5.7504.2512-7.8364,1.4962-1.4032,3.5749-1.8073,5.4009-1.265.8932.277,1.7528.7883,2.4355,1.5162,1.3147,1.4018,1.7499,3.3245,1.3542,5.0639Z"/><path class="cls-4" d="M752.6664,226.6969c-23.3726-12.7644-54.1449-21.0462-70.2797-5.9137l-.7683.7206c-5.2683-1.241-11.0956-.1335-16.63,3.2583-1.6817,1.0704-3.1948,2.1856-4.5158,3.4245-1.6579,1.5549-3.0336,3.2758-4.1522,5.1357-5.0353.8714-9.7139,3.2578-13.7577,7.0504-3.6799,3.4513-6.934,8.302-8.2341,12.9671-2.2538.9737-4.3517,2.3837-6.3466,4.2547-.2561.2402-.5257.4931-.7843.8116-7.3892,7.4115-12.2362,18.3168-12.0298,26.9654.0113,1.6869.2484,3.2634.6202,4.7134l-.1079.1012c-.2291.2149-.4583.4298-.6899.7231-5.8802,6.0217-8.6601,14.0254-7.4477,21.8826.3763,2.5354-.1147,3.5786.9777,5.797l.0261,8.5644c-.5807,3.0277-.4528,6.3787.4747,9.6638.9537,3.2861,2.6656,6.165,4.8821,8.3932-1.0214,3.3143-.9238,7.2004.378,11.0467.1198.3439.2791.6758.4114,1.033l2.1453,4.0433c.8116,1.1897,1.7303,2.3043,2.772,3.2528-.5557,2.244-.4986,4.9522.5722,8.255l1.8353,4.3341c1.2668,2.4855,3.0748,5.2236,5.4491,8.2414l2.8454,3.4121c2.1955,2.476,4.6893,4.6216,7.3759,6.4597l3.9245,2.3746c2.3917,1.2533,4.8691,2.2741,7.4469,3.0235l10.2415,1.4919c6.7722.0079,12.628-1.9878,16.6178-5.7297,3.4373-3.2238,5.2177-7.3766,5.13-11.9814,3.4208-1.0801,6.6325-2.9775,9.4766-5.645,2.1567-2.0227,4.1321-4.5088,5.8581-7.369,6.2288.6442,14.3707-.8859,24.126-8.2869,1.1642-.8386,2.1466-1.7092,3.0767-2.5815,6.4297-6.0302,7.0277-11.6329,6.4396-15.3126-.135-.6841-.3103-1.3304-.4857-1.9766,2.0835-.9661,4.1924-2.3105,6.2816-4.27,1.0918-1.024,2.1499-2.219,3.1726-3.5329,8.8806-11.5213,8.4483-24.1386,4.4976-31.4036.7787-3.0867.6568-6.2153-.3499-9.0716,2.3009-1.2206,4.4409-2.7209,6.2876-4.4528,3.1542-2.9583,5.6256-6.6444,7.294-10.9707,1.9606-4.8792,2.9406-9.3452,3.0029-13.3309.337-.316.6589-.5672.9959-.8833,6.7936-6.3715,7.5252-13.2904,6.916-17.9382-1.2304-9.335-8.5839-17.3107-14.9716-20.7447ZM735.7586,273.287c.9422.7884,2.3333.6239,3.121-.2922.7624-.943.65-2.3325-.3057-3.1083-.0127-.0135-2.4288-2.1305-2.3131-4.5194.0763-1.5665,1.2237-3.0986,3.4285-4.5836,2.8333-1.9226,6.0571-2.1592,8.0326-.5662,3.098,2.4657,3.0798,8.7407-.0658,16.7326-2.2638,5.7716-6.4332,9.8086-11.8702,11.7915.097-.1669.2334-.3455.3041-.5132,1.5212-2.9975,1.1151-6.6452-1.0342-9.7473-2.537-3.6506-6.8928-5.6206-11.3275-5.1351-1.2201.1308-2.092,1.2272-1.9611,2.4473.1444,1.2073,1.2273,2.0919,2.4347,1.9476,3.3982-.3749,5.9551,1.433,7.2304,3.2519,1.2247,1.765,1.4889,3.7215.7206,5.2527-1.1034,2.2003-4.204,3.4868-8.7338,3.6815-.2992-.0488-.5991-.0715-.9118-.1077-6.908-1.0712-12.3742-1.4426-16.8256-1.2454-2.9593.1405-5.4442.5707-7.6213,1.1938.6594-1.8092.927-3.6309.7758-5.4401-.3109-3.7622-2.4105-7.1895-5.9138-9.6552-.997-.7118-2.3771-.4815-3.0763.529-.7118.9969-.468,2.3645.5289,3.0762,1.4066.9865,3.7958,3.1287,4.0569,6.4056.255,3.0545-1.4498,6.4775-4.9207,9.9355-2.7767,2.6042-5.0545,5.9566-7.7037,9.8854-2.223,3.2758-4.7215,6.9871-8.0811,11.0501-4.7478,5.7704-8.9161,6.5127-13.4295,4.9692l-.0127-.0135c-.0261-.0009-.0522-.0018-.0649-.0152-2.7673-.9516-5.6512-2.7567-8.8813-4.7691-6.7554-4.2041-14.3946-8.9726-23.7253-6.657-1.1863.302-1.9048,1.5078-1.6156,2.6807.3019,1.1864,1.5078,1.9048,2.6807,1.6156,4.4547-1.1123,8.5542-.118,12.4837,1.6945-1.2343.575-2.397,1.3614-3.423,2.3744-3.9983,4.0032-4.4194,9.7947-1.1009,14.7646.6735,1.0152,2.0504,1.2947,3.079.6086.0935-.0624.1879-.1509.2688-.2267.7818-.7333.9374-1.9181.3264-2.8397-3.2063-4.7964-.3766-8.2357.5559-9.1864,1.8787-1.914,5.1436-3.0252,7.6019-1.4037.1795.1104.359.2207.5386.331,1.1149.7025,2.2686,1.4194,3.4365,2.0975-.4802.2984-.9596.5706-1.39.9491-4.0473,3.4918-6.0498,9.677-4.966,15.0198.9826,4.8297,4.3327,8.4017,9.4183,10.0421.8022.2611,1.633.0393,2.1991-.4917.2561-.2402.4625-.5604.5922-.9355.3639-1.1519-.276-2.4014-1.4279-2.7652-3.5713-1.1603-5.7979-3.4805-6.4525-6.7176-.7557-3.7504.6884-8.4238,3.5233-10.804,1.0894-.9456,2.8073-1.9234,4.8625-1.1907.0649.0152.1307.0041.1955.0194,5.3939,1.8071,11.1229,1.324,17.0696-5.1401.2026,1.8368.7338,3.6189,1.5835,5.2543.123.2392.2604.4397.3979.6402.5791,1.1038.7015,2.1797.2618,3.2508-.5533,1.355-1.9088,2.449-3.3556,2.7165-1.1964.2101-1.9917,1.3612-1.7816,2.5576.2227,1.2099,1.3738,2.0052,2.5704,1.7952,1.6835-.3121,3.2658-1.1374,4.5194-2.3131.9301-.8723,1.6697-1.9207,2.1514-3.0819.0573-.155.0623-.3118.107-.4803,1.4772.8188,3.1205,1.3552,4.868,1.4896.6522.0471,1.2479-.1822,1.6927-.5994.3775-.354.6419-.8554.6865-1.4293.0916-1.226-.8162-2.2749-2.0287-2.3791-3.5862-.2849-5.4025-2.7618-6.1663-4.2245-1.6883-3.2049-1.6235-7.2689.1631-10.3887,1.3689-1.9172,2.5768-3.7088,3.7291-5.3977,3.281-4.8761,5.7913-8.5478,9.3711-10.9172-1.5254,2.7228-1.7549,5.3957-1.7402,6.9781.069,3.9636,1.9093,8.5463,4.8511,9.3597.7905.2214,1.6473.0005,2.2134-.5305.2696-.2529.4769-.5992.5804-.975.3258-1.1924-.2904-2.3627-1.4692-2.7011-.6793-.4271-2.1165-3.3103-1.6807-6.7086.3904-2.7984,2.1449-6.5467,8.4059-8.5425,4.0716-.1702,9.1711.2155,15.8322,1.2396.4164.0657.8081.0783,1.2378.1312.0784.0026.1685.0447.2604.0346.0387.0142.0649.0151.1045.0033,1.9541.2195,3.8735.2941,5.7206.1834,2.2565.1639,4.3256,2.0998,4.9387,4.5905,1.0507,4.335-2.1503,9.1615-8.791,13.2107-1.027.6338-1.3713,1.9956-.7249,3.0361.6204,1.0397,1.9829,1.358,3.0226.7376,2.2267-1.3537,4.0095-2.7217,5.4518-4.0744.8357-.7838,1.5274-1.5591,2.1532-2.3235,1.8293,4.1116,2.5026,12.4745-4.058,20.9584-6.7249,8.714-14.7488,6.1557-16.3364,5.5165-.2191-.0986-.3481-.155-.4004-.1566-1.1097-.454-2.3685.0679-2.8351,1.1643-.4792,1.0828-.0105,2.3661,1.0716,2.8713.2191.0986.4382.1971.6707.283,2.2416,1.0394,6.6912,3.7576,7.1427,7.2106.4666,3.388-3.0557,6.8183-6.071,9.1141-7.1013,5.368-13.6009,7.4607-19.3149,6.2578-6.1422-1.3082-9.9493-6.1238-12.0624-9.9438-.5934-1.065-1.9273-1.4607-2.9923-.8673-1.0649.5935-1.448,1.9409-.8682,3.0185,2.5584,4.6187,6.0028,8.1023,9.9357,10.2156-4.572,8.8484-11.0998,13.0451-18.1612,11.459-5.8413-1.3116-10.5105-6.5601-10.4112-11.6951.0132-1.2286-.961-2.2403-2.1895-2.2536-1.2151-.0259-2.2008.9493-2.2401,2.1769-.1275,7.239,5.9737,14.3116,13.8921,16.0821.1685.0446.3252.0496.5072.0816,1.6853,4.5253.76,8.1041-2.7777,10.3833-6.5269,4.1706-21.6952,3.0175-31.6074-8.3348-9.5331-10.9479-8.6627-15.2606-8.1708-16.33.6174-1.3137,2.0961-1.3578,2.3313-1.3503,1.0558.0992,2.1799.1091,3.3604-.01.4979-.0363.9495-.2572,1.2865-.5732.4852-.4551.7683-1.1259.6864-1.8345-.1048-1.2192-1.1877-2.1038-2.3944-1.9856-6.5967.6383-10.4947-3.788-11.4689-8.4735-.5297-2.6449-.0558-5.5975,1.7918-6.545,2.8363.4308,6.4023.1267,10.8643-1.626.6843,4.7548,3.2286,10.6281,9.3812,13.6494-1.4069,1.4715-2.5171,3.4755-3.1183,5.9142-1.9911,8.2774,2.0228,19.2837,15.5512,23.8749.8013.2872,1.6583.0662,2.2244-.4647.2561-.2402.4625-.5604.5913-.9093.3772-1.1645-.2364-2.4132-1.3875-2.8031-10.916-3.6969-14.2233-12.2749-12.6851-18.6581.676-2.7369,2.5174-5.5281,4.9897-5.1611,0,0,.0261.0008.0396-.0118.6379.0857,1.3027.1463,1.9946.1816,5.0001.2257,9.1268-1.6685,12.0923-4.4498.1348-.1264.2579-.2924.3926-.4188.0674-.0632.1465-.0868.2013-.1636,1.1255-1.2582,2.4558-2.3791,3.979-3.4024-.7292,1.9507-1.1476,3.9901-1.0647,5.8884.2262,5.5899,3.8468,9.2883,9.6711,9.9064.6648.0605,1.2865-.1679,1.7449-.5978.364-.3414.6275-.8166.6848-1.377.1304-1.2117-.7504-2.2858-1.9621-2.4162-4.5603-.4861-5.6185-3.3702-5.7268-5.7009-.1448-3.6392,2.1201-8.221,5.4574-9.9575,3.2143-1.1651,6.8037-2.2006,10.784-3.1974,1.5293-.3954,2.9726-.9636,4.3408-1.6388-.5282,4.6505,1.4779,8.1402,4.1469,10.1216,4.1892,3.089,9.8735,2.7745,13.3917-.5252.3639-.3413.716-.7223,1.0293-1.1175.7506-.9827.5726-2.3611-.41-3.1117-.9566-.7497-2.3351-.5717-3.0984.3975-2.0613,2.7186-5.9256,2.5425-8.2886.8063-2.7709-2.0629-3.9954-6.6912.8652-13.53.0278-.0515.0294-.1037.0707-.1678.7632-1.3744,1.2549-2.8491,1.5133-4.3835,2.1875.2793,4.765-.1872,6.8941-.9426,2.3407-.827,4.7233-2.1496,6.6778-3.9827.7953-.7459,1.5021-1.5861,2.1195-2.4946.8603-.3254,2.708-.8677,4.2855-.3202,1.0086.346,1.7941,1.1296,2.3817,2.3774.5133,1.1146,1.8187,1.5879,2.9333,1.0745.2124-.0977.4128-.2352.5746-.3869.6875-.6448.903-1.6575.5001-2.5464-1.0891-2.3229-2.8017-3.9598-4.9354-4.695-1.2799-.4463-2.5456-.5261-3.6991-.4323.1902-1.0399.265-2.1488.1847-3.3149-.1428-2.0703-.5443-3.8221-1.1504-5.3058-.886-2.1333-.7204-4.0368.4169-5.2555.9478-1.0155,2.3565-1.3234,3.6627-.8762,1.151.3898,2.4132-.2364,2.7896-1.3749.4034-1.1638-.2103-2.4124-1.374-2.8157-2.9358-.9962-6.2438-.1741-8.3019,2.0348-.7447.7999-1.2846,1.737-1.6443,2.7582-2.5862-1.7041-5.4993-2.1897-7.53-2.0587-1.2184.0786-2.1147,1.122-2.0488,2.327.0786,1.2183,1.1076,2.1534,2.3261,2.0749.8114-.0263,7.849-.1407,8.4389,8.7817.3431,5.2015-3.5804,8.0958-5.9604,9.34-3.4714,1.8367-6.5982,1.9065-7.5799,1.5351-.9793-4.9342-4.9085-9.2046-11.3028-12.0244-1.109-.4801-2.4327.0266-2.9127,1.1356-.4935,1.1216.0266,2.4326,1.1356,2.9127,6.0337,2.6513,9.2777,6.6775,8.9011,11.0846-.1059,1.2647-.511,2.4807-1.1359,3.6243-.3563.5116-.6858.9978-.9898,1.511-1.8533,2.3462-4.7633,4.2141-8.3223,5.1197-3.1368.7885-6.0395,1.6106-8.7611,2.4908-.921.1796-1.7812.5051-2.6178.9097-2.3811.865-4.5683,1.8016-6.5507,2.8755.7313-4.461-.6254-8.6358-3.853-11.1319-.9565-.7498-2.2954-.5835-3.0848.3848-.7632.9693-.5852,2.3477.3841,3.1109,2.8578,2.2096,2.7337,6.0756,1.687,8.9575-1.5884,4.2766-5.9446,8.4383-12.1591,8.1606-13.8645-.6274-13.5714-13.8491-13.5404-14.4102.0251-.7838-.3567-1.5151-1.0099-1.9412-.6531-.4263-1.4755-.4657-2.179-.1352-7.4387,3.6576-13.3043,3.5087-16.5247-.4383-3.1193-3.8392-2.8332-9.9094-1.1012-12.1418.6949-.8798,1.4583-1.0385,2.6179-.5045.0253.027.0649.0152.1162.043,2.3916,1.2534,5.0756,1.9539,7.9007,1.9137,1.2295-.0129,2.2033-1.0275,2.1769-2.2443-.0003-1.216-1.015-2.1899-2.2308-2.1896-5.049.0735-9.5029-2.9195-11.5944-7.8239-2.0199-4.693-2.0373-11.8974,3.9643-18.0329,1.9999-2.0277,4.2926-2.987,7.0892-2.9497,3.6468.0254,7.5274,1.7317,10.9759,3.8687l.0127.0135q.0261.0008.0388.0143c5.8198,3.6121,10.3726,8.4123,10.4484,8.4932.8479.877,2.2323.9214,3.1219.087s.9476-2.2314.1131-3.1211c-.1896-.2021-1.9856-2.0901-4.7617-4.4017,2.51-.4032,5.0875-1.275,7.3395-2.6018,1.2394-.7316,2.3514-1.572,3.3354-2.4948,3.7607-3.5271,5.7214-8.4062,5.6031-14.0973-.0129-1.2294-1.0149-2.1898-2.2578-2.1643-1.2033.0138-2.1771,1.0285-2.1507,2.2452.1387,7.0906-3.6026,10.8276-6.7873,12.6996-4.3719,2.6054-9.5556,2.8053-11.8411,1.5031l-.0261-.0008c-1.1536-.7169-2.3748-1.3705-3.6237-1.9728-3.4173-2.2929-5.0534-5.0908-4.8862-8.2625.2267-3.8104,3.042-7.2109,5.7011-8.59,1.0775-.5799,1.4994-1.913.9456-2.9898-.5664-1.0902-1.913-1.4994-2.9898-.9456-4.4679,2.3409-7.78,7.3728-8.0681,12.2794-.1083,2.1538.3489,4.208,1.3073,6.1214-.4955-.0421-1.0036-.0976-1.4999-.1135-1.0457-.0073-2.056.1041-3.0165.2955-.8766-1.2047-1.3606-2.8283-1.4006-4.8431-.1411-6.2016,3.836-14.8469,9.4315-20.5508,3.7447-3.8414,8.3427-4.9361,11.3849-2.7728,2.9277,2.0681,4.8155,7.6197.5181,16.4638-.5449,1.0939-.0779,2.4293,1.0034,2.9608.8629.4068,1.836.2288,2.4831-.378.1886-.1769.3656-.3935.4785-.6514,1.8327-3.7459,2.6983-7.0912,2.9092-9.9999,2.7371,1.8919,5.9107,2.8173,9.3443,2.5613,2.0054-.158,3.9332-.7499,5.7127-1.6081.053-.0244.1053-.0227.145-.0345,2.5073-1.1355,5.3698-.7039,7.8332,1.1663,3.2294,2.4438,4.8987,6.6548,4.2591,10.7003-.9872,6.3224-7.0967,11.7484-17.1864,15.3079-1.1635.4073-1.7531,1.6696-1.3585,2.8198.408,1.1374,1.6696,1.7531,2.8069,1.345,3.0147-1.0539,5.5365-2.2281,7.7068-3.4529-.548,2.8195-.4733,5.7897.5822,8.3468.4603,1.1391,1.764,1.6646,2.877,1.2036.2519-.1096.492-.2588.6807-.4358.647-.6068.8743-1.5801.5228-2.4411-1.6254-3.9482.1843-9.8258,2.8961-12.4452.027-.0253.0413-.0641.0421-.0901,3.2527-3.5827,4.4097-7.0495,4.7875-9.456.6404-4.0717-.4036-8.2104-2.7037-11.5003,1.0175-1.9678,3.6442-4.786,7.4163-6.2209,4.3948-1.6895,9.1717-1.0265,13.8244,1.8813.0641.0413.1155.0691.1669.0969,4.5195,2.5766,9.2751,6.7559,6.333,12.0743-.5964,1.0661-.2085,2.4251.8711,3.0088.8477.4717,1.8859.3089,2.5598-.3232.1752-.1644.3117-.343.4228-.5487,2.1369-3.8536,1.859-7.824-.5095-11.4299,3.7083-.2603,6.3571-2.1364,7.8129-3.5018l.3505-.3287c4.2838-4.3471,5.8134-11.2796,3.3101-15.1644-.66-1.0279-2.0234-1.32-3.0378-.6726-1.054.6591-1.3334,2.036-.6734,3.0639,1.2078,1.8822.2582,6.6238-2.7282,9.6528-2.283,2.2932-6.2935,4.2303-12.5094.3311l-.0127-.0135-.0135.0127c-.0127-.0135-.0514-.0279-.064-.0413-3.6921-2.2886-7.1268-3.2224-10.1147-3.4097-3.0014-.1747-5.5696.4097-7.5682,1.1693-4.0374,1.5572-7.1597,4.3333-8.9851,7.0335l-.0885-.0944c-1.5059-1.1465-3.1677-1.9189-4.8674-2.3263.8879-1.1875,1.6215-2.4582,2.0847-3.8554.3444-.9564.5061-1.9188.6028-2.8962.0017-.0523.0422-.0903.0303-.1298.2088-1.2092.2144-2.608.2361-4.0977.0274-5.7517.4505-9.9742,5.4383-11.8146,1.151-.4207,1.7279-1.6965,1.3072-2.8475-.408-1.1374-1.6965-1.7279-2.8348-1.2937-5.1724,1.8868-7.1105,5.6554-7.8597,9.449-.6548-.7793-1.3747-1.5737-2.1879-2.3058-.9153-.8138-2.3284-.7807-3.1295.148-.8138.9153-.7411,2.3166.1607,3.143,3.8885,3.4976,5.3294,7.4923,4.0595,11.2169-1.328,3.9057-5.345,6.8624-9.7485,7.192-2.5952.2044-7.4775-.4358-10.8274-6.8711l-.0632-.0674c-.8193-1.3598-1.8441-2.4254-2.9565-3.2064-1.4318-1.0134-3.0354-1.5616-4.7148-1.7854.3081-1.4543,1.2109-3.9226,3.2461-6.6421,1.9662-2.6041,5.9298-6.7523,11.9746-7.709-.7396,5.1275.7241,10.0379,2.3552,12.9927.5933,1.0649,1.9534,1.4616,3.0184.8681,1.0777-.5799,1.4481-1.9408.8547-3.0058-.2841-.5189-6.9601-12.9049,5.4585-20.5997,6.1892-3.8284,12.0876-3.0772,15.7296,1.9946.939,1.2983,1.6361,2.7981,2.0687,4.3938-.0008.0261.0118.0396.011.0658,1.2961,4.8397.1159,10.6591-4.7731,14.7122-.9284.82-1.0637,2.1885-.2959,3.1152.7804.9403,2.1885,1.0639,3.1287.2834.2957-.2519.6049-.5166.8879-.782,2.8846-2.7054,4.6231-5.9575,5.4094-9.2792,4.6305,5.6396,12.3473,10.4367,21.4767,8.2845.3817-.0793.7279-.2773.9975-.5302.5527-.5184.8398-1.3197.6434-2.1235-.2758-1.1855-1.4684-1.9167-2.6537-1.6409-3.4513.8046-6.5876.3511-9.3212-.8349.5132-.1012,1.0271-.2285,1.5167-.4089,1.9698-.6821,3.7703-1.7879,5.2261-3.1533,1.2131-1.1377,2.171-2.4668,2.8565-3.8699.0412-.064.0952-.1146.1239-.1921,1.8966-4.9204,6.3925-6.0968,9.9941-5.0661,4.4441,1.2537,8.3119,5.8099,6.9247,13.1915-.2213,1.1957.5785,2.3458,1.7743,2.5672.7146.1404,1.4148-.0854,1.9135-.5532.337-.316.5728-.74.6662-1.2077.3164-1.7156.3945-3.3342.3116-4.8274l.0017-.0523c-.0653-2.0416.772-3.2829,2.6071-3.8386,3.34-1.0042,8.1474.7449,9.9125,3.5994,1.6521,2.707.0938,5.6379-1.7805,7.8266-2.3669.0157-4.8761.7981-7.1753,2.3717-3.4206,2.296-5.2198,4.997-5.3692,8.0253-.2274,4.6471,3.7445,7.9907,3.9097,8.1398ZM758.0842,250.1948c.1575,3.6527-1.5305,6.9586-4.9981,9.9068-.8228-1.6606-1.8476-2.7263-2.5994-3.3388-.4593-.3547-.9202-.657-1.3955-.9208,3.5842-5.3631,1.8745-9.5362.8437-11.2297-2.8077-4.5874-9.6688-7.1216-14.9501-5.5128-1.2141.3533-2.2394.9349-3.1004,1.6918-1.9488-3.6448-5.2187-6.0506-8.6138-6.9962-3.9386-1.1198-7.7403-.3919-10.7236,1.722-.7884-2.3263-2.6384-4.9743-6.7112-7.2098-1.0661-.5964-2.4116-.2211-2.9953.8584-.5964,1.066-.2077,2.399.8584,2.9954,2.4152,1.3325,5.2443,3.6197,4.9543,6.9573-.237,2.9079-2.8679,5.8568-6.2263,7.0304-1.7719.623-5.1229,1.1563-8.0255-1.6954-1.759-2.2267-2.9029-4.4729-3.2714-6.0275-.0117-.0396-.0497-.08-.0614-.1196-.5591-2.136-1.4763-4.1134-2.7161-5.8136-.6253-.8829-1.3705-1.7043-2.2217-2.4768,10.7929-13.6694,38.272-7.4673,61.5291,5.2279,4.1503,2.2641,10.1375,8.4048,10.4245,14.9511Z"/><path class="cls-4" d="M477.2869,405.9816c-3.6537,3.4267-3.8377,9.1666-.411,12.8203s9.1666,3.8377,12.8203.411c3.6538-3.4268,3.8378-9.1666.4111-12.8204s-9.1666-3.8377-12.8204-.4109ZM486.1151,415.3946c-1.5449,1.4489-3.9719,1.3711-5.4208-.1738s-1.3712-3.9719.1737-5.4208,3.9719-1.3711,5.4209.1738,1.3711,3.9719-.1738,5.4209Z"/><path class="cls-4" d="M517.8922,400.6026c-3.6537,3.4267-3.8377,9.1666-.411,12.8203,3.4268,3.6538,9.1666,3.8377,12.8203.411,3.6538-3.4268,3.8378-9.1666.4111-12.8204-3.4267-3.6537-9.1666-3.8377-12.8204-.4109ZM526.7205,410.0155c-1.5449,1.4489-3.9719,1.3711-5.4208-.1738s-1.3712-3.9719.1737-5.4208,3.9719-1.3711,5.4209.1738c1.4489,1.5449,1.3711,3.9719-.1738,5.4209Z"/><path class="cls-4" d="M552.0174,396.4669c-3.6537,3.4267-3.8377,9.1666-.411,12.8203,3.4268,3.6538,9.1666,3.8377,12.8203.411s3.8378-9.1666.4111-12.8204-9.1666-3.8377-12.8204-.4109ZM560.8457,405.8799c-1.5449,1.4489-3.9719,1.3711-5.4208-.1738-1.4489-1.5449-1.3712-3.9719.1737-5.4208,1.5449-1.4489,3.9719-1.3711,5.4209.1738,1.4489,1.5449,1.3711,3.9719-.1738,5.4209Z"/><path class="cls-4" d="M575.4429,399.8327c-3.6537,3.4267-3.8377,9.1666-.411,12.8203,3.4268,3.6538,9.1666,3.8377,12.8203.411,3.6538-3.4268,3.8378-9.1666.4111-12.8204-3.4267-3.6537-9.1666-3.8377-12.8204-.4109ZM584.2711,409.2456c-1.5449,1.4489-3.9719,1.3711-5.4208-.1738-1.4489-1.5449-1.3712-3.9719.1737-5.4208,1.5449-1.4489,3.9719-1.3711,5.4209.1738s1.3711,3.9719-.1738,5.4209Z"/><path class="cls-4" d="M564.6676,450.4762c-3.6537,3.4267-3.8377,9.1666-.411,12.8203,3.4268,3.6538,9.1666,3.8377,12.8203.411s3.8378-9.1666.4111-12.8204-9.1666-3.8377-12.8204-.4109ZM573.4958,459.8892c-1.5449,1.4489-3.9719,1.3711-5.4208-.1738-1.4489-1.5449-1.3712-3.9719.1737-5.4208s3.9719-1.3711,5.4209.1738c1.4489,1.5449,1.3711,3.9719-.1738,5.4209Z"/><path class="cls-4" d="M519.1674,526.0866c-3.6537,3.4267-3.8377,9.1666-.411,12.8203,3.4268,3.6538,9.1666,3.8377,12.8203.411s3.8378-9.1666.4111-12.8204c-3.4267-3.6537-9.1666-3.8377-12.8204-.4109ZM527.9956,535.4995c-1.5449,1.4489-3.9719,1.3711-5.4208-.1738-1.4489-1.5449-1.3712-3.9719.1737-5.4208,1.5449-1.4489,3.9719-1.3711,5.4209.1738s1.3711,3.9719-.1738,5.4209Z"/></svg>
