<?xml version="1.0" encoding="UTF-8"?><svg id="Layer_1" xmlns="http://www.w3.org/2000/svg" viewBox="0 0 1714.4575 1974.522"><defs><style>.cls-1,.cls-2,.cls-3,.cls-4,.cls-5,.cls-6,.cls-7,.cls-8,.cls-9,.cls-10,.cls-11,.cls-12,.cls-13{fill-rule:evenodd;}.cls-1,.cls-11{fill:#fff;}.cls-2{fill:#e35720;}.cls-3{fill:#ff7900;}.cls-4{fill:#fffedc;}.cls-5{fill:#cee9f5;}.cls-6{fill:#293659;}.cls-7{fill:#384770;}.cls-8{fill:#212d4d;}.cls-9{fill:#ff6c30;}.cls-10{fill:#ff8d2a;}.cls-11{stroke:#494949;stroke-miterlimit:10;}.cls-12{fill:#ffdb7f;}.cls-13{fill:#53749f;}</style></defs><polygon class="cls-5" points="577.2388 1154.9252 731.026 1291.9193 181.0338 1748.7692 577.2388 1154.9252"/><path class="cls-3" d="M6.7046,1434.9998l454.5545-243.4358L13.8595,1448.8476c-12.1189,6.9637-20.2732-6.823-7.1549-13.8478Z"/><path class="cls-3" d="M93.1035,1340.4217l276.6888-120.8538-273.1586,129.2694c-7.3984,3.5008-11.5149-4.9294-3.5303-8.4156Z"/><path class="cls-3" d="M470.076,1887.4734l220.0808-478.4036-205.2458,485.0568c-5.5612,13.1352-21.1855,7.1515-14.835-6.6532Z"/><path class="cls-3" d="M490.1508,1963.6773l152.5519-389.0304-140.4769,393.6688c-3.8061,10.6599-16.4767,6.5888-12.075-4.6384Z"/><path class="cls-10" d="M426.1327,1466.8511c10.9072-153.2843,29.7182-277.7476,162.2292-355.9921,66.7831,58.2135,106.4354,92.7691,173.2139,150.9792-63.0128,135.9581-187.5941,176.3647-335.4432,205.013Z"/><path class="cls-12" d="M478.6815,1406.7133c16.232-114.4061,35.6946-209.5153,125.4669-282.095,45.4367,39.6073,90.7257,79.4647,136.1624,119.0681-57.6811,95.588-152.5064,133.7553-261.6293,163.0269Z"/><path class="cls-9" d="M686.3878,930.657l220.3976-335.38c-278.1133-51.5015-446.4633,15.3497-565.5732,127.5376-38.6844,36.4345-156.9295,159.6217-97.3599,211.8275,41.639,36.491,170.7597-191.4697,442.5355-3.9851Z"/><path class="cls-4" d="M897.3764,609.5929c-91.4619-10.6962-210.2794-27.3899-337.9828,9.7898-185.8825,54.115-365.0959,252.4207-299.9912,318.8567-6.1268,1.0589-11.3035.1256-15.5501-3.5972-59.5697-52.2058,58.6754-175.3931,97.3599-211.8275,119.1099-112.1879,287.46-179.0391,565.5732-127.5376l-9.409,14.3158Z"/><path class="cls-2" d="M882.9208,631.5912c-136.8892,110.0052-318.6323,156.7909-494.1542,240.622,70.7172-25.8681,167.9121-31.0351,297.6211,58.4438l196.5331-299.0658Z"/><path class="cls-9" d="M929.9454,1142.9482l302.1472-264.1235c88.992,268.4763,45.7517,444.3778-49.1233,577.69-30.8119,43.2959-136.7006,177.2529-196.5512,125.3694-41.8336-36.2665,166.3627-195.3032-56.4727-438.9358Z"/><path class="cls-4" d="M1219.1949,890.0996c23.0837,89.1448,55.8439,204.5703,36.4493,336.1549-28.2292,191.5294-200.2099,396.1402-274.9123,340.7157-.2136,6.2154,1.4185,11.2143,5.6862,14.9139,59.8506,51.8836,165.7393-82.0734,196.5512-125.3694,94.875-133.3122,138.1153-309.2136,49.1233-577.69l-12.8976,11.2749Z"/><path class="cls-2" d="M1199.3765,907.4229c-90.2858,150.6272-111.8188,337.0562-170.9003,522.3801,15.9719-73.5863,7.82-170.5782-98.5308-286.8548l269.4311-235.5254Z"/><path class="cls-11" d="M1706.8508,108.9331c-78.7372,481.8264-508.1497,915.8862-811.56,1072.938-10.7855,5.5835-21.688,10.0294-32.6184,13.499l-96.0021-83.6781-28.0287-24.4314-96.0025-83.6777c1.945-11.3027,4.8616-22.7089,8.9196-34.1559,114.1601-322.0254,486.9038-802.3828,952.1397-950.4707,60.5893-19.286,94.9028-22.4473,104.4408-14.1509,7.4627,6.4924,8.4811,44.3504-1.2884,104.1278Z"/><path class="cls-9" d="M977.2256,449.5483l389.6655,339.6434c-11.7596,13.8478-23.6649,27.4534-35.6886,40.8224l-389.6525-339.6325c11.6392-13.7021,23.5277-27.322,35.6756-40.8333Z"/><path class="cls-5" d="M1654.2007,224.1794c-130.0157,424.2073-507.7965,794.5873-780.9908,938.4461-10.7139,5.6425-21.5351,10.1612-32.3757,13.7118l-147.7054-128.6465c72.6188-10.0169,283.9967-180.4396,356.7301-230.8954,228.4775-158.4934,463.5453-376.7241,574.8339-618.3392l29.508,25.7232Z"/><path class="cls-9" d="M1675.8397,243.0405l-199.9521-174.2836h0c41.7085-19.2313,84.3549-35.9683,127.8108-49.8006,60.5893-19.286,94.9028-22.4473,104.4408-14.1509,7.4627,6.4924,8.4811,44.3504-1.2884,104.1278-7.384,45.1848-17.8518,89.9532-31.0111,134.1073Z"/><path class="cls-4" d="M1492.9051,71.9969c38.7392-17.4606,78.2804-32.7577,118.5118-45.563,33.1169-10.542,58.3844-16.2646,76.0456-17.9337-1.336.4684-2.7343.924-4.1967,1.36-38.5004,11.4875-99.6818,39.28-155.5123,65.0403-6.9674,3.2152-13.8549,6.3967-20.6017,9.5139l-14.2467-12.4175Z"/><path class="cls-2" d="M1675.8397,243.0405l-199.9521-174.2836c7.98-3.6785,15.992-7.2661,24.039-10.7593,19.1057,10.6624,37.076,22.3946,54.0708,35.0463,21.3885,15.9251,25.4974,16.016,46.2626-4.3579,31.3611-30.771,64.6107-59.4934,98.4617-87.5651,4.2585.6852,7.3962,1.9273,9.4175,3.6845,1.6464,1.4328,2.9798,4.3944,3.9527,8.7785-23.0845,37.1872-46.8965,73.8677-72.9756,108.9705-17.3473,23.352-16.6966,27.4112,1.9997,46.4252,14.8102,15.0628,28.8476,31.2115,41.9852,48.6254-2.3211,8.5005-4.7412,16.9793-7.2615,25.4355h0ZM1475.8876,68.7569"/><path class="cls-8" d="M651.5588,969.427l243.732,212.4442c-10.7855,5.5835-21.688,10.0294-32.6184,13.499-73.3445-63.9301-146.6883-127.8576-220.0332-191.7872,1.945-11.3027,4.8616-22.7089,8.9196-34.1559Z"/><path class="cls-2" d="M651.5588,969.427l243.732,212.4442c8.7023-4.5058,17.52-9.2659,26.4202-14.2205l-112.2725-97.8599-35.1284-30.6181-112.2666-97.8552c-3.6974,9.4865-7.21,18.8715-10.4847,28.1096Z"/><path class="cls-2" d="M1235.4783,674.6474l107.8362,93.9944c-11.7634,13.844-23.6746,27.4446-35.6936,40.8172l-114.5072-99.8082c14.213-11.4673,28.3475-23.1313,42.3647-35.0034Z"/><path class="cls-6" d="M1284.6255,490.1739c-49.8527-43.4525-55.0403-119.0908-11.5877-168.9436,43.4525-49.8519,119.0908-55.0391,168.9423-11.5865,49.8532,43.4521,55.0404,119.0904,11.5878,168.9423-43.4522,49.8515-119.0905,55.0403-168.9424,11.5877Z"/><path class="cls-13" d="M1301.6971,470.5879c-39.0365-34.0241-43.098-93.2501-9.0734-132.2867,34.0241-39.0348,93.2501-43.0979,132.2854-9.0734,39.0361,34.0247,43.0979,93.2518,9.0734,132.2867-34.0242,39.0353-93.2506,43.098-132.2854,9.0734Z"/><path class="cls-7" d="M1311.6241,459.1986c-32.7459-28.5421-36.1532-78.2243-7.611-110.9689,28.5408-32.7454,78.2243-36.1527,110.9689-7.6119,32.7454,28.5418,36.1527,78.2239,7.611,110.9698-28.5408,32.7446-78.2242,36.1519-110.9689,7.611Z"/><path class="cls-1" d="M1313.7945,385.7964c-12.348-10.7628-13.633-29.497-2.8699-41.8441,10.7615-12.3472,29.4961-13.633,41.8428-2.8704,12.3484,10.7631,13.633,29.4974,2.8703,41.8446-10.7618,12.3471-29.4961,13.633-41.8432,2.8699Z"/><path class="cls-9" d="M1049.8718,770.1399c-3.1795,164.8808-192.4413,307.2104-241.1088,336.378l-34.3097-29.9067-1.4565-1.2691-34.311-29.9055c22.249-52.1927,137.393-259.0934,300.2873-284.7736,10.7842-1.6957,11.1122-1.4616,10.8987,9.4768Z"/><path class="cls-4" d="M745.671,1051.5257c33.0765-67.7552,137.1386-239.1656,279.3347-279.6594-114.5434,73.5871-215.9349,197.316-275.4771,283.0213l-3.8576-3.3618Z"/><path class="cls-2" d="M802.7794,1101.3021c20.9226-18.164,175.604-151.1203,224.3178-305.4761-73.5164,97.4125-235.9128,265.98-250.7419,282.4445l26.4241,23.0316Z"/><path class="cls-7" d="M642.6392,1003.5829c73.0502,63.6718,147.0434,128.1675,220.0931,191.8398-16.1769,30.5428-34.4828,59.664-57.0733,86.1096-5.044,5.9028-14.0677,6.4675-19.9199,1.3658-72.7671-63.4246-145.5339-126.851-218.2997-190.2756-5.8539-5.1017-6.527-14.1164-1.3672-19.9198,23.1149-25.9899,48.5194-48.9228,76.567-69.1198Z"/><path class="cls-8" d="M806.81,1280.1774l-1.1511,1.3549c-5.044,5.9028-14.0677,6.4675-19.9199,1.3658-72.7671-63.4246-145.5339-126.851-218.2997-190.2756-5.8539-5.1017-6.527-14.1164-1.3672-19.9198l1.1844-1.3288c-.2974,4.3443,1.4063,8.826,4.9567,11.9209,74.0374,64.5327,148.0761,129.0676,222.1131,193.6008,3.5497,3.0931,8.2213,4.1701,12.4837,3.2818Z"/><path class="cls-8" d="M761.8042,1107.4504c3.9611,10.1693-12.5705,26.8983-29.4915,46.8848-17.7374,20.9538-36.8048,42.2467-47.0781,40.9609l100.5044,87.6021c5.8522,5.1017,14.8759,4.537,19.9199-1.3658,22.5905-26.4455,40.8964-55.5668,57.0733-86.1096l-100.9281-87.9723Z"/><path class="cls-4" d="M594.3123,1099.4599l-5.3249-4.641c-4.9282-4.2955-5.1682-12.2704-.4191-17.6189,21.2694-23.9602,43.0133-42.1297,68.3832-61.1423l8.1159,7.0737c-25.9595,19.6907-48.117,38.7033-69.9937,63.3652-2.7279,3.0754-2.9954,9.1605-.7615,12.9633Z"/><path class="cls-4" d="M516.6014,1363.4815c18.9491-86.6372,40.3434-158.9756,110.4985-218.8582,30.7853,26.838,61.641,53.7246,92.4255,80.5627-48.1015,75.1156-121.2923,109.6367-202.924,138.2955Z"/><path class="cls-12" d="M612.3327,1253.6936c6.8588-34.7693,13.7295-62.1653,41.6402-85.6442l38.3476,33.424c-18.8109,29.8386-47.1168,41.4431-79.9878,52.2202Z"/><path class="cls-4" d="M642.6392,1003.5829l169.63,147.8549c-60.1416-47.925-120.319-95.6061-181.115-139.3177,2.8783-2.2087,8.5027-6.4158,11.485-8.5372Z"/></svg>